<svg xmlns="http://www.w3.org/2000/svg" width="720" height="220" viewBox="0 0 720 220" role="img" aria-label="gh-actions-doctor Last 30 days traffic chart">
  <rect width="720" height="220" fill="#ffffff"/>
  <text x="24" y="28" fill="#1f2937" font-family="Segoe UI, Arial, sans-serif" font-size="18" font-weight="600">Last 30 days</text>
  <text x="696" y="28" text-anchor="end" fill="#4b5563" font-family="Segoe UI, Arial, sans-serif" font-size="13">35 views · 6 unique</text>
  <line x1="48" y1="178" x2="696" y2="178" stroke="#d1d5db"/>
  <line x1="48" y1="42" x2="48" y2="178" stroke="#d1d5db"/>
  <rect x="48.00" y="178.00" width="17.73" height="0.00" rx="2" fill="#0e75b6"><title>May 10: 0 views</title></rect><rect x="69.73" y="178.00" width="17.73" height="0.00" rx="2" fill="#0e75b6"><title>May 11: 0 views</title></rect><rect x="91.47" y="178.00" width="17.73" height="0.00" rx="2" fill="#0e75b6"><title>May 12: 0 views</title></rect><rect x="113.20" y="178.00" width="17.73" height="0.00" rx="2" fill="#0e75b6"><title>May 13: 0 views</title></rect><rect x="134.93" y="178.00" width="17.73" height="0.00" rx="2" fill="#0e75b6"><title>May 14: 0 views</title></rect><rect x="156.67" y="178.00" width="17.73" height="0.00" rx="2" fill="#0e75b6"><title>May 15: 0 views</title></rect><rect x="178.40" y="178.00" width="17.73" height="0.00" rx="2" fill="#0e75b6"><title>May 16: 0 views</title></rect><rect x="200.13" y="178.00" width="17.73" height="0.00" rx="2" fill="#0e75b6"><title>May 17: 0 views</title></rect><rect x="221.87" y="178.00" width="17.73" height="0.00" rx="2" fill="#0e75b6"><title>May 18: 0 views</title></rect><rect x="243.60" y="178.00" width="17.73" height="0.00" rx="2" fill="#0e75b6"><title>May 19: 0 views</title></rect><rect x="265.33" y="178.00" width="17.73" height="0.00" rx="2" fill="#0e75b6"><title>May 20: 0 views</title></rect><rect x="287.07" y="178.00" width="17.73" height="0.00" rx="2" fill="#0e75b6"><title>May 21: 0 views</title></rect><rect x="308.80" y="178.00" width="17.73" height="0.00" rx="2" fill="#0e75b6"><title>May 22: 0 views</title></rect><rect x="330.53" y="178.00" width="17.73" height="0.00" rx="2" fill="#0e75b6"><title>May 23: 0 views</title></rect><rect x="352.27" y="178.00" width="17.73" height="0.00" rx="2" fill="#0e75b6"><title>May 24: 0 views</title></rect><rect x="374.00" y="178.00" width="17.73" height="0.00" rx="2" fill="#0e75b6"><title>May 25: 0 views</title></rect><rect x="395.73" y="178.00" width="17.73" height="0.00" rx="2" fill="#0e75b6"><title>May 26: 0 views</title></rect><rect x="417.47" y="178.00" width="17.73" height="0.00" rx="2" fill="#0e75b6"><title>May 27: 0 views</title></rect><rect x="439.20" y="178.00" width="17.73" height="0.00" rx="2" fill="#0e75b6"><title>May 28: 0 views</title></rect><rect x="460.93" y="178.00" width="17.73" height="0.00" rx="2" fill="#0e75b6"><title>May 29: 0 views</title></rect><rect x="482.67" y="130.70" width="17.73" height="47.30" rx="2" fill="#0e75b6"><title>May 30: 8 views</title></rect><rect x="504.40" y="42.00" width="17.73" height="136.00" rx="2" fill="#0e75b6"><title>May 31: 23 views</title></rect><rect x="526.13" y="172.09" width="17.73" height="5.91" rx="2" fill="#0e75b6"><title>Jun 01: 1 views</title></rect><rect x="547.87" y="160.26" width="17.73" height="17.74" rx="2" fill="#0e75b6"><title>Jun 02: 3 views</title></rect><rect x="569.60" y="178.00" width="17.73" height="0.00" rx="2" fill="#0e75b6"><title>Jun 03: 0 views</title></rect><rect x="591.33" y="178.00" width="17.73" height="0.00" rx="2" fill="#0e75b6"><title>Jun 04: 0 views</title></rect><rect x="613.07" y="178.00" width="17.73" height="0.00" rx="2" fill="#0e75b6"><title>Jun 05: 0 views</title></rect><rect x="634.80" y="178.00" width="17.73" height="0.00" rx="2" fill="#0e75b6"><title>Jun 06: 0 views</title></rect><rect x="656.53" y="178.00" width="17.73" height="0.00" rx="2" fill="#0e75b6"><title>Jun 07: 0 views</title></rect><rect x="678.27" y="178.00" width="17.73" height="0.00" rx="2" fill="#0e75b6"><title>Jun 08: 0 views</title></rect>
  <text x="48" y="204" fill="#6b7280" font-family="Segoe UI, Arial, sans-serif" font-size="12">May 10</text>
  <text x="696" y="204" text-anchor="end" fill="#6b7280" font-family="Segoe UI, Arial, sans-serif" font-size="12">Jun 08</text>
</svg>
